<svg width="96" height="96" viewBox="0 0 96 96" fill="none" xmlns="http://www.w3.org/2000/svg">
<g clip-path="url(#clip0)">
<path d="M50.0126 0C49.3926 0 48.7526 0.032 48.0966 0.084C31.1886 1.416 35.6726 19.312 35.4166 25.276C35.1086 29.648 34.2166 33.092 31.2126 37.36C27.6726 41.564 22.7046 48.36 20.3486 55.444C19.2366 58.772 18.7086 62.18 19.2006 65.4C19.0446 65.536 18.8966 65.672 18.7566 65.94C17.7166 67.012 16.9606 68.344 16.1086 69.296C15.3126 70.092 14.1686 70.364 12.9206 70.896C11.6686 71.44 10.2886 71.972 9.46459 73.62C9.10459 74.372 8.92059 75.192 8.93659 76.024C8.93659 76.82 9.04459 77.628 9.15659 78.168C9.38859 79.764 9.62059 81.084 9.31259 82.048C8.32059 84.768 8.19659 86.632 8.89259 87.988C9.58859 89.324 11.0326 89.864 12.6486 90.392C15.8926 91.192 20.2886 90.932 23.7486 92.788C27.4526 94.656 31.2126 95.472 34.2126 94.668C36.3166 94.208 38.0926 92.816 39.0446 90.888C41.3926 90.876 43.9646 89.812 48.0846 89.552C50.8806 89.32 54.3806 90.62 58.3966 90.348C58.4966 90.888 58.6486 91.144 58.8526 91.684L58.8646 91.696C60.4286 94.808 63.3166 96.224 66.4006 95.98C69.4846 95.74 72.7686 93.836 75.4286 90.756C77.9526 87.696 82.1606 86.42 84.9406 84.744C86.3326 83.948 87.4566 82.868 87.5366 81.332C87.6286 79.732 86.7406 78.084 84.6806 75.824V75.436L84.6686 75.424C83.9886 74.624 83.6686 73.284 83.3166 71.72C82.9766 70.116 82.5886 68.576 81.3486 67.536H81.3366C81.1006 67.32 80.8446 67.268 80.5846 66.996C80.3606 66.844 80.1006 66.748 79.8246 66.74C81.5486 61.628 80.8806 56.54 79.1326 51.964C77.0006 46.324 73.2726 41.412 70.4326 38.032C67.2486 34.012 64.1286 30.204 64.1886 24.556C64.2966 15.948 65.1366 0.024 50.0126 0V0ZM52.1286 13.62H52.1806C53.0326 13.62 53.7646 13.868 54.5166 14.412C55.2806 14.952 55.8366 15.74 56.2726 16.544C56.6926 17.58 56.9046 18.38 56.9366 19.44C56.9366 19.36 56.9606 19.28 56.9606 19.204V19.62C56.9526 19.592 56.9446 19.56 56.9446 19.536L56.9286 19.44C56.9206 20.412 56.7166 21.372 56.3286 22.264C56.1406 22.764 55.8526 23.224 55.4766 23.604C55.3606 23.54 55.2486 23.484 55.1246 23.436C54.7046 23.256 54.3286 23.18 53.9846 22.904C53.7006 22.792 53.4046 22.7 53.1086 22.64C53.3046 22.404 53.6886 22.108 53.8366 21.848C54.0486 21.336 54.1646 20.792 54.1886 20.24V20.164C54.1966 19.624 54.1166 19.08 53.9446 18.564C53.7646 18.024 53.5406 17.76 53.2126 17.228C52.8766 16.964 52.5446 16.7 52.1446 16.7H52.0806C51.7086 16.7 51.3766 16.82 51.0326 17.228C50.6526 17.604 50.3686 18.056 50.2126 18.564C50.0006 19.072 49.8766 19.62 49.8526 20.164V20.24C49.8606 20.596 49.8846 20.956 49.9326 21.308C49.1606 21.04 48.1806 20.768 47.5046 20.5C47.4646 20.24 47.4406 19.972 47.4326 19.704V19.624C47.4006 18.568 47.6046 17.52 48.0326 16.548C48.3606 15.672 48.9606 14.924 49.7526 14.416C50.4366 13.9 51.2686 13.62 52.1286 13.62ZM40.2806 13.856H40.4246C40.9926 13.856 41.5046 14.048 42.0206 14.396C42.6046 14.912 43.0766 15.548 43.3966 16.256C43.7566 17.052 43.9606 17.86 44.0086 18.924V18.94C44.0366 19.476 44.0326 19.744 44.0006 20.004V20.324C43.8806 20.352 43.7766 20.396 43.6686 20.42C43.0606 20.64 42.5726 20.96 42.0966 21.22C42.1446 20.864 42.1486 20.504 42.1086 20.152V20.092C42.0606 19.56 41.9526 19.296 41.7806 18.76C41.6566 18.352 41.4286 17.988 41.1166 17.692C40.9206 17.512 40.6566 17.42 40.3846 17.436H40.3006C40.0166 17.46 39.7806 17.6 39.5566 17.964C39.3006 18.272 39.1366 18.648 39.0766 19.044C38.9686 19.476 38.9366 19.92 38.9846 20.368V20.424C39.0326 20.964 39.1326 21.228 39.3086 21.76C39.4886 22.296 39.6966 22.56 39.9686 22.832C40.0126 22.868 40.0526 22.904 40.1046 22.928C39.8246 23.156 39.6366 23.208 39.4006 23.472C39.2526 23.584 39.0806 23.712 38.8766 23.744C38.4606 23.244 38.0926 22.704 37.7766 22.136C37.3926 21.296 37.1926 20.384 37.1566 19.468C37.0886 18.564 37.2006 17.66 37.4766 16.796C37.6966 16.008 38.0846 15.28 38.6086 14.656C39.1206 14.124 39.6486 13.856 40.2806 13.856ZM45.7646 20.68C47.0886 20.68 48.6926 20.94 50.6246 22.276C51.7966 23.076 52.7166 23.352 54.8366 24.148H54.8486C55.8686 24.692 56.4686 25.212 56.7606 25.744V25.22C57.0526 25.808 57.0726 26.492 56.8246 27.1C56.3326 28.344 54.7606 29.676 52.5686 30.472V30.48C51.4966 31.02 50.5646 31.812 49.4686 32.34C48.3646 32.88 47.1166 33.508 45.4206 33.408C44.8126 33.44 44.2006 33.348 43.6286 33.14C43.1886 32.9 42.7566 32.636 42.3406 32.348C41.5606 31.808 40.8886 31.02 39.8926 30.488V30.468H39.8726C38.2726 29.484 37.4086 28.42 37.1286 27.624C36.8526 26.552 37.1086 25.748 37.9006 25.224C38.7966 24.684 39.4206 24.14 39.8326 23.88C40.2486 23.584 40.4046 23.472 40.5366 23.356H40.5446V23.344C41.2206 22.536 42.2886 21.468 43.9006 20.94C44.4566 20.796 45.0766 20.68 45.7646 20.68ZM56.9606 29.252C58.3966 34.92 61.7486 43.152 63.9046 47.144C65.0486 49.28 67.3246 53.78 68.3126 59.24C68.9366 59.22 69.6286 59.312 70.3646 59.496C72.9486 52.812 68.1806 45.628 66.0086 43.632C65.1246 42.828 65.0806 42.292 65.5166 42.292C67.8726 44.428 70.9766 48.58 72.1006 53.32C72.6166 55.46 72.7366 57.736 72.1846 60C72.4526 60.112 72.7246 60.244 73.0046 60.268C77.1326 62.404 78.6566 64.02 77.9246 66.416V66.244C77.6806 66.232 77.4446 66.244 77.2006 66.244H77.1406C77.7446 64.376 76.4126 62.944 72.8806 61.348C69.2206 59.748 66.2966 60.004 65.7966 63.208C65.7686 63.38 65.7486 63.472 65.7286 63.748C65.4566 63.84 65.1726 63.96 64.8926 64.004C63.1726 65.076 62.2446 66.68 61.7206 68.752C61.2006 70.884 61.0406 73.376 60.9006 76.228V76.24C60.8166 77.576 60.2166 79.592 59.6246 81.644C53.6246 85.932 45.3046 87.796 38.2286 82.98C37.7846 82.208 37.2446 81.484 36.6206 80.848C36.3246 80.348 35.9486 79.9 35.5206 79.512C36.2486 79.512 36.8726 79.396 37.3806 79.244C37.9606 78.976 38.4086 78.492 38.6366 77.908C39.0686 76.84 38.6366 75.12 37.2566 73.256C35.8766 71.388 33.5326 69.276 30.1046 67.172C27.5846 65.576 26.1606 63.692 25.5046 61.588C24.8446 59.452 24.9326 57.248 25.4446 55.008C26.4246 50.728 28.9366 46.568 30.5406 43.956C30.9686 43.696 30.6886 44.496 28.9086 47.852C27.3246 50.856 24.3446 57.84 28.4206 63.268C28.5726 59.312 29.4526 55.408 31.0086 51.764C33.2646 46.652 37.9806 37.748 38.3526 30.692C38.5446 30.836 39.2206 31.232 39.5086 31.5C40.3806 32.032 41.0286 32.832 41.8686 33.36C42.7126 34.164 43.7766 34.7 45.3726 34.7C45.5286 34.712 45.6726 34.724 45.8166 34.724C47.4606 34.724 48.7326 34.188 49.8006 33.652C50.9606 33.116 51.8846 32.316 52.7606 32.052H52.7806C54.6486 31.512 56.1246 30.444 56.9606 29.252ZM65.7046 65.084C65.8526 67.488 67.0766 70.064 69.2326 70.592C71.5846 71.128 74.9686 69.26 76.3966 67.532L77.2406 67.496C78.5006 67.464 79.5486 67.536 80.6286 68.564L80.6406 68.576C81.4726 69.372 81.8606 70.7 82.2046 72.08C82.5446 73.684 82.8206 75.2 83.8406 76.344C85.7846 78.452 86.4206 79.968 86.3846 80.904L86.3966 80.88V80.952L86.3846 80.904C86.3246 81.952 85.6446 82.488 84.3926 83.284C81.8726 84.888 77.4086 86.132 74.5646 89.564C72.0926 92.512 69.0806 94.12 66.4206 94.328C63.7646 94.54 61.4726 93.528 60.1246 90.736L60.1046 90.724C59.2646 89.12 59.6246 86.624 60.3286 83.964C61.0326 81.292 62.0406 78.584 62.1806 76.372C62.3286 73.516 62.4846 71.032 62.9606 69.116C63.4406 67.256 64.1926 65.928 65.5246 65.18L65.7046 65.092V65.084ZM22.4446 65.28H22.4846C22.6966 65.28 22.9046 65.3 23.1126 65.336C24.6166 65.556 25.9366 66.668 27.2046 68.344L30.8446 75L30.8566 75.012C31.8286 77.144 33.8726 79.268 35.6126 81.564C37.3486 83.956 38.6926 86.088 38.5286 87.844V87.868C38.3006 90.844 36.6126 92.46 34.0286 93.044C31.4486 93.584 27.9486 93.052 24.4486 91.188C20.5766 89.044 15.9766 89.312 13.0206 88.78C11.5446 88.516 10.5766 87.976 10.1286 87.176C9.68459 86.38 9.67659 84.772 10.6206 82.256V82.244L10.6286 82.232C11.0966 80.896 10.7486 79.22 10.5206 77.756C10.3006 76.152 10.1886 74.92 10.6926 73.996C11.3326 72.66 12.2766 72.4 13.4486 71.864C14.6286 71.324 16.0126 71.056 17.1126 69.988H17.1206V69.976C18.1446 68.904 18.9006 67.572 19.7926 66.624C20.5526 65.82 21.3126 65.28 22.4446 65.28ZM51.0806 28.984C49.3406 29.788 47.3006 31.124 45.1286 31.124C42.9606 31.124 41.2486 30.056 40.0126 29.26C39.3926 28.724 38.8926 28.188 38.5166 27.92C37.8606 27.384 37.9406 26.584 38.2206 26.584C38.6566 26.648 38.7366 27.124 39.0166 27.388C39.4006 27.652 39.8766 28.184 40.4606 28.72C41.6246 29.52 43.1806 30.588 45.1246 30.588C47.0646 30.588 49.3366 29.52 50.7166 28.724C51.4966 28.184 52.4966 27.388 53.3086 26.856C53.9326 26.308 53.9046 25.784 54.4246 25.784C54.9406 25.848 54.5606 26.32 53.8366 27.116C53.1126 27.656 51.9926 28.456 51.0766 28.988V28.984H51.0806ZM46.7526 22.648V22.56C46.7286 22.484 46.8046 22.392 46.8686 22.36C47.1646 22.188 47.5886 22.252 47.9086 22.376C48.1606 22.376 48.5486 22.644 48.5086 22.916C48.4846 23.112 48.1686 23.18 47.9686 23.18C47.7486 23.18 47.6006 23.008 47.4046 22.908C47.1966 22.836 46.8206 22.876 46.7526 22.648ZM44.5486 22.648C44.4686 22.88 44.0966 22.844 43.8846 22.912C43.6966 23.012 43.5406 23.184 43.3286 23.184C43.1246 23.184 42.8046 23.108 42.7806 22.912C42.7446 22.648 43.1326 22.38 43.3806 22.38C43.7046 22.256 44.1166 22.192 44.4166 22.36C44.4926 22.396 44.5606 22.48 44.5366 22.56V22.644H44.5486V22.648Z" fill="white"/>
</g>
<defs>
<clipPath id="clip0">
<rect width="96" height="96" fill="white"/>
</clipPath>
</defs>
</svg>
