<svg width="116" height="116" viewBox="0 0 116 116" fill="none" xmlns="http://www.w3.org/2000/svg">
<path d="M57.9998 106.333C84.6936 106.333 106.333 84.6936 106.333 57.9998C106.333 31.3061 84.6936 9.6665 57.9998 9.6665C31.3061 9.6665 9.6665 31.3061 9.6665 57.9998C9.6665 84.6936 31.3061 106.333 57.9998 106.333Z" stroke="white" stroke-width="2" stroke-linecap="round" stroke-linejoin="round"/>
<path d="M57.9998 77.3332C68.6773 77.3332 77.3332 68.6773 77.3332 57.9998C77.3332 47.3223 68.6773 38.6665 57.9998 38.6665C47.3223 38.6665 38.6665 47.3223 38.6665 57.9998C38.6665 68.6773 47.3223 77.3332 57.9998 77.3332Z" stroke="white" stroke-width="2" stroke-linecap="round" stroke-linejoin="round"/>
<path d="M102.322 38.6665H58" stroke="white" stroke-width="2" stroke-linecap="round" stroke-linejoin="round"/>
<path d="M19.0923 29.29L41.2773 67.6667" stroke="white" stroke-width="2" stroke-linecap="round" stroke-linejoin="round"/>
<path d="M52.5864 106.043L74.7231 67.6665" stroke="white" stroke-width="2" stroke-linecap="round" stroke-linejoin="round"/>
</svg>
