<svg width="105" height="105" viewBox="0 0 105 105" fill="none" xmlns="http://www.w3.org/2000/svg">
<path d="M92.8741 66.6085C95.6846 61.294 98.9394 51.0544 96.2265 42.0653C96.1922 41.9505 96.152 41.8373 96.1157 41.7231C96.0122 41.3794 95.942 41.1894 95.942 41.1894L95.9418 41.1897L95.9417 41.1894L95.9418 41.1897L95.9417 41.1901C95.9326 41.164 95.9252 41.1375 95.9159 41.1114C95.9237 41.141 95.9305 41.1709 95.9381 41.2005C95.8905 41.3436 95.1478 43.5848 94.1715 46.8797C94.7009 41.9636 94.3307 36.8416 92.6198 32.106C91.8085 29.8462 90.7978 27.9697 89.8133 26.4716C88.5372 24.3897 87.1337 22.7988 86.0285 22.0366C86.1542 22.1314 86.2785 22.2414 86.4011 22.3636C86.1652 22.1468 86.0283 22.0368 86.0283 22.0368C86.0552 22.066 86.0794 22.0955 86.1059 22.1247C86.0246 22.0516 85.9765 22.0107 85.9765 22.0107C85.9765 22.0107 86.0728 22.5347 86.2411 23.4581C83.9502 19.8142 80.5155 17.9746 80.0389 17.7316C79.9852 17.6955 79.9557 17.6768 79.9557 17.6768C79.9557 17.6768 80.1429 18.7418 80.4259 21.0133C76.8304 18.1473 72.5011 15.7999 67.343 14.3809C75.7774 19.9346 78.9176 24.6579 80.8896 28.8622C78.632 26.5523 74.7909 24.1647 72.1698 23.9572C76.0196 26.8316 82.4535 35.2931 81.9176 48.1057C80.1785 43.7481 77.8272 41.942 77.8272 41.942C77.8304 41.9785 77.8337 42.016 77.8368 42.0527C77.8167 42.034 77.7954 42.0114 77.7754 41.9938C78.3217 46.9912 78.4696 50.4585 78.3961 53.0307C78.3778 53.6075 78.3485 54.1864 78.3052 54.7651C78.0941 57.4433 77.6122 58.997 77.1904 60.6153C76.7153 58.5896 76.0887 57.461 76.0887 57.461C76.0887 57.461 76.0841 57.5103 76.0744 57.5981C76.0622 57.5707 76.048 57.5392 76.0365 57.5131C76.0365 57.5131 75.8805 61.5098 73.2854 67.2192C71.6787 70.7507 70.0374 72.2829 68.9931 72.6453C68.6126 72.7549 68.2987 72.7064 68.0698 72.5394C68.0635 72.564 68.0559 72.5877 68.0494 72.6123C68.03 72.6001 68.0176 72.5914 68.0176 72.5914C68.0694 72.0207 68.1474 71.4496 67.9917 71.0603C67.9917 71.0603 67.1611 71.346 66.6159 72.0985C66.4083 72.4101 66.1231 72.6957 65.7594 72.9809C65.7076 73.0327 66.3563 72.1507 66.3046 72.1764C65.9931 72.4359 65.6296 72.7472 65.2926 73.1107C64.0209 74.4342 62.8531 75.9138 62.2563 75.4983C62.8015 75.3166 63.2683 74.6162 63.3722 73.9149C62.8794 74.2783 61.6074 75.2125 58.7528 75.654C57.585 75.8355 52.6281 76.7438 46.0104 73.4218C46.9705 73.3183 48.4239 72.9807 49.5139 73.6294C48.4239 72.4355 45.7509 72.6694 43.8563 72.0723C42.1954 71.5533 40.0413 69.2177 38.7957 68.0498C43.2604 69.1433 47.9635 68.5766 51.1531 66.9829C51.6176 66.7549 52.0511 66.5048 52.4465 66.2335C54.3639 64.9077 57.0546 63.0051 58.5572 62.8573C58.7376 62.8562 58.9154 62.8707 59.09 62.9116C60.7509 63.2747 61.8668 61.614 60.5692 60.1088C59.2717 58.6033 56.1055 56.6053 51.8235 57.6694C48.5278 58.4999 45.7509 61.1212 41.1315 59.3046C40.8457 59.2009 40.5605 59.071 40.2748 58.9153C39.9892 58.7594 41.235 59.0968 40.9237 58.9153C40.0417 58.5777 38.4326 57.851 38.0174 57.5655C37.9392 57.5138 38.6922 57.6953 38.6142 57.6436C37.7137 57.1107 37.0126 56.6001 36.4631 56.1135C36.4531 56.1044 36.4444 56.0951 36.4342 56.0862C33.9431 53.8803 34.5141 51.7522 34.8252 50.6623C35.0676 49.8029 35.7207 49.039 36.1509 48.732C36.2013 48.6999 36.2517 48.6675 36.3042 48.6383C36.927 48.8718 37.3165 49.0794 37.3165 49.0794C37.3165 49.0794 37.0307 48.6383 36.8492 48.4046C36.9009 48.3786 36.927 48.3786 36.9791 48.3527C37.4981 48.5344 38.6659 48.9496 39.2367 49.261C40.0415 49.6503 40.3009 50.0655 40.3009 50.0655C40.3009 50.0655 40.4826 49.9357 40.3009 49.5464C40.2231 49.3647 39.9376 48.8716 39.1591 48.4046C39.1854 48.4046 39.1854 48.4046 39.1854 48.4046C39.6005 48.5603 40.0418 48.7679 40.5089 49.0535C40.6648 48.3527 40.95 47.626 40.7683 46.3544C40.6126 45.446 40.6385 45.2385 40.4309 44.901C40.2492 44.6155 40.4828 44.5118 40.7683 44.7453C40.6905 44.5118 40.5867 44.3042 40.4828 44.0705C40.4837 44.0662 40.4865 44.0614 40.4876 44.057C40.5198 44.1216 40.5468 44.1559 40.5746 44.1505C40.5948 44.1773 40.607 44.1727 40.6128 44.1222L40.6131 44.121C41.9907 42.4596 47.4115 39.9435 48.6307 38.6462C48.787 38.477 48.9157 38.3323 49.0224 38.2064C49.0131 38.2325 49.0035 38.2612 48.995 38.2831C49.6954 37.7381 50.0067 37.219 50.3183 36.4664C50.6298 35.6879 50.9933 33.8712 49.9552 33.482C49.1348 33.2831 48.4085 33.1323 47.1176 33.1427C46.032 33.0631 44.5659 33.0262 42.5844 33.0409C39.7037 33.0668 38.3542 30.5496 37.887 29.4855C37.8783 29.517 37.8707 29.5486 37.8622 29.5803C37.8533 29.5577 37.8428 29.5327 37.8348 29.5118C38.6654 26.4755 40.3522 23.8283 42.9733 21.6742C43.1291 21.5444 42.3505 21.752 42.5061 21.6223C42.6878 21.4666 43.8037 20.9216 44.0113 20.8179C44.2707 20.6622 42.7915 20.2729 41.5459 20.5323C40.3522 20.776 40.0731 20.9281 39.4854 21.2249C39.4568 21.2362 39.4248 21.249 39.3863 21.2647C39.6659 20.9803 40.4772 20.5849 40.2742 20.6103C38.8987 20.9218 37.2639 21.8301 35.8887 22.7903C35.8887 22.6605 35.8887 22.5568 35.9146 22.3751C35.2657 22.7125 33.6828 23.9322 33.2935 24.8405C33.2935 24.6329 33.2935 24.529 33.2674 24.3214C32.8265 24.7364 32.3854 25.2296 31.9959 25.7485C31.9959 25.7485 31.9928 25.7581 31.985 25.7657C30.4476 25.3825 29.0354 25.1979 27.7676 25.1416C25.4563 25.0259 23.3815 25.327 21.5246 25.9105C20.5433 25.1123 19.0928 23.7227 17.9818 21.9335C17.9628 21.9047 17.9472 21.9001 17.9337 21.9101C17.9131 21.8962 17.8972 21.9118 17.8835 21.9422C17.8818 21.9386 17.88 21.9359 17.8781 21.9329C17.8133 21.8353 17.7891 22.0025 17.7544 22.1027C17.063 20.8523 16.5022 18.7522 16.425 17.2614C16.425 17.2614 16.4148 17.2677 16.4002 17.277C16.3998 17.2722 16.3993 17.2666 16.3991 17.2616C16.3991 17.2616 16.3709 17.2785 16.3246 17.3112C16.3237 17.2949 16.322 17.2777 16.3213 17.2616C16.3213 17.2616 15.1796 17.9105 14.4528 20.246C14.3789 20.4825 14.3137 20.6592 14.2568 20.8114C14.2704 20.6168 14.2848 20.4133 14.2715 20.4536C14.2659 20.4659 14.257 20.4803 14.2505 20.4933C14.2517 20.4564 14.2504 20.4392 14.2455 20.4536C14.2259 20.497 14.1983 20.5455 14.1674 20.5968C14.1735 20.4962 14.1759 20.429 14.1676 20.4536C14.0378 20.7392 13.6226 21.2062 13.4928 21.7253C13.4115 22.0303 13.2989 22.2414 13.2287 22.5551C13.2233 22.4381 13.2172 22.3492 13.207 22.3999C13.2059 22.4029 13.2048 22.406 13.2037 22.409C13.2005 22.3883 13.1943 22.374 13.1807 22.374C13.1807 22.374 13.1807 22.374 13.1544 22.374C13.1457 22.3959 13.137 22.4207 13.1285 22.4438C13.1207 22.3833 13.112 22.3477 13.1033 22.374C12.7657 23.2305 12.4805 24.2166 12.2209 25.3325C11.9655 26.5729 11.7111 28.1353 11.663 30.0168C11.5637 31.752 11.6311 33.0492 11.7276 33.2999C11.7352 33.2923 11.7411 33.2855 11.7485 33.2781C11.7485 33.2781 11.7491 33.2797 11.7492 33.2809C10.6363 34.809 9.93703 36.1038 9.65166 36.7518C8.30184 39.3729 6.9261 43.4214 5.81055 49.7018C5.81055 49.7018 5.83407 49.6286 5.87758 49.5018C5.86388 49.5777 5.84999 49.6512 5.83647 49.7279C5.83647 49.7279 5.84036 49.7157 5.84758 49.6935C5.84388 49.7138 5.84018 49.7335 5.83647 49.754C5.83647 49.754 5.8624 49.6501 5.93999 49.4685C5.91407 49.5462 5.91407 49.6501 5.88814 49.7279C5.88814 49.7279 5.99203 49.4423 6.17388 48.9235C6.19147 48.8255 6.20981 48.7329 6.22758 48.636C6.57795 47.7253 7.16407 46.3388 7.98851 44.8388C6.92351 48.2179 6.07869 53.4144 6.58907 61.1468C6.59147 61.1223 6.59647 61.0775 6.60277 61.0231C6.60703 61.0905 6.61073 61.1568 6.61536 61.2246C6.61536 61.1781 6.63536 61.0873 6.63962 60.9575C6.64036 60.951 6.6411 60.9446 6.64184 60.9379C6.64203 61.029 6.64351 61.1038 6.66721 61.1986C6.66721 61.0951 6.71907 60.6536 6.82314 59.9792C6.81814 59.8849 6.81573 59.7955 6.8111 59.702C6.94092 58.8549 7.1411 57.7038 7.42906 56.3772C7.7311 61.5896 8.99203 67.9398 13.025 74.8494C16.1392 80.1696 24.3141 92.5229 44.8424 97.142C44.765 97.1198 44.6911 97.0949 44.6157 97.0712C44.7176 97.0946 44.8176 97.1192 44.92 97.1422C43.9857 96.8827 43.1813 96.4935 42.5842 96.1301C42.5311 96.1159 42.4792 96.1011 42.4263 96.0866C41.6304 95.6096 41.1829 95.1955 41.1829 95.1955C41.1829 95.1955 41.6628 95.3494 42.4694 95.5772C42.4733 95.5798 42.4767 95.5822 42.4805 95.5847C44.8681 96.2596 50.2924 97.6349 54.5481 97.4796C54.5078 97.4714 54.4724 97.4623 54.4333 97.4538C54.437 97.4536 54.4409 97.4536 54.4446 97.4536C54.3957 97.4449 54.352 97.4346 54.3052 97.4251C53.9005 97.3312 53.567 97.2203 53.3287 97.0903C53.3031 97.0894 53.2772 97.0879 53.2515 97.087C52.5163 96.7322 52.3422 96.3118 52.3422 96.3118C52.3422 96.3118 52.5628 96.324 52.9611 96.3351C52.9713 96.3447 52.9802 96.3538 52.9909 96.3636C55.8196 96.4418 69.2891 96.5455 76.6854 90.7064C78.5279 89.3307 79.7215 87.722 80.1107 86.2681C80.1107 86.2681 80.0981 86.2794 80.0698 86.294C80.0726 86.2838 80.0757 86.2736 80.0783 86.2635L80.0841 86.2605L80.0829 86.2472C80.0844 86.2412 80.0865 86.2351 80.0879 86.2292C80.0941 86.226 80.1002 86.2227 80.1063 86.2196L80.1104 86.2423C80.1104 86.2423 80.1024 86.2497 80.0841 86.2605L80.0848 86.2683C80.9413 85.8273 81.7976 85.3083 82.68 84.7114C84.6726 83.359 87.0504 81.5244 89.0507 79.2383C89.1268 79.1514 89.2015 79.0631 89.2765 78.9749C89.3868 78.8449 89.5015 78.7196 89.6092 78.5866C90.4524 77.5646 91.0935 76.5685 91.5837 75.646C91.5859 75.642 91.5881 75.6379 91.5904 75.6336C91.5959 75.6233 91.602 75.6125 91.6076 75.6022C91.605 75.607 91.602 75.6118 91.5994 75.6164C92.5867 73.784 93.2513 71.739 93.3724 69.4773C93.3366 70.0005 93.2129 70.5159 93.0189 71.0218C93.0298 70.9618 93.0402 70.902 93.0507 70.8422C93.5405 69.1533 93.4941 67.6462 92.8741 66.6085Z" fill="white"/>
</svg>
