<svg width="96" height="96" viewBox="0 0 96 96" fill="none" xmlns="http://www.w3.org/2000/svg">
<path d="M48 44H92V4L48 8V44Z" fill="white"/>
<path d="M40 43.9993V8.72656L4 11.9993V43.9993H40Z" fill="white"/>
<path opacity="0.2" d="M48 8V9L92 5V4L48 8Z" fill="white"/>
<path opacity="0.1" d="M92 43H48V44H92V43Z" fill="black"/>
<path opacity="0.2" d="M4 11.9993V12.9993L40 9.72656V8.72656L4 11.9993Z" fill="white"/>
<path opacity="0.1" d="M40 43H4V44H40V43Z" fill="black"/>
<path d="M48 52H92V92L48 88V52Z" fill="white"/>
<path d="M40 52V87.2727L4 84V52H40Z" fill="white"/>
<path opacity="0.1" d="M48 88V87L92 91V92L48 88Z" fill="black"/>
<path opacity="0.2" d="M92 52H48V53H92V52Z" fill="white"/>
<path opacity="0.1" d="M4 84V83L40 86.2727V87.2727L4 84Z" fill="black"/>
<path opacity="0.2" d="M40 52H4V53H40V52Z" fill="white"/>
<path d="M48 8V44H92V4L48 8ZM4 44H40V8.72729L4 12V44ZM48 88L92 92V52H48V88ZM4 84L40 87.2727V52H4V84Z" fill="url(#paint0_linear)"/>
<defs>
<linearGradient id="paint0_linear" x1="-0.398038" y1="21.4316" x2="102.526" y2="69.4261" gradientUnits="userSpaceOnUse">
<stop stop-color="white" stop-opacity="0.2"/>
<stop offset="1" stop-color="white" stop-opacity="0"/>
</linearGradient>
</defs>
</svg>
